<?xml version="1.0" encoding="utf-8"?>
<!-- Generator: Adobe Illustrator 24.3.0, SVG Export Plug-In . SVG Version: 6.00 Build 0)  -->
<svg version="1.1" id="wishlist-heart" xmlns="http://www.w3.org/2000/svg" xmlns:xlink="http://www.w3.org/1999/xlink" x="0px"
	 y="0px" viewBox="0 0 17 18" style="enable-background:new 0 0 17 18;" xml:space="preserve">
<g id="adUI-Library">
	<g id="adButtons_x2F_Links" transform="translate(-780 -822)">
		<g id="adcallout-links" transform="translate(625 773)">
			<g id="adcallout-link" transform="translate(0 40)">
				<g id="adarrow" transform="translate(155.5 10)">
				</g>
			</g>
		</g>
	</g>
</g>
<g id="aoMy-Account">
	<g id="aoMy-Account-LG---_x2265_1440---Wish-List" transform="translate(-658 -1601)">
		<g id="aosocial-links" transform="translate(482 1592)">
		</g>
	</g>
</g>
<g id="beSymbols">
	<g id="beheader-_x2F_-320" transform="translate(-244 -40)">
		<g id="beheader" transform="translate(0 28)">
			<g id="beicons-_x2F_-32px-_x2F_-heart" transform="translate(245 13)">
			</g>
		</g>
	</g>
</g>
<g id="boPDP">
	<g id="boPDP-New---_x2265_1440-colors_x2F_sizes-not-available" transform="translate(-735 -749)">
		<g id="boSM-icon-links" transform="translate(735 733)">
			<g id="boADD-TO-WISHLIST" transform="translate(1 17)">
				<g id="boicons-_x2F_-32px-_x2F_-heart">
				</g>
			</g>
		</g>
	</g>
</g>
<g id="bwPDP">
	<g id="bwPDP-FIS---_x2265_1440--Expanded" transform="translate(-737 -801)">
		<g id="bwFind-in-Store" transform="translate(737 800)">
			<g id="bwlocation-pin" transform="translate(0 1)">
			</g>
		</g>
	</g>
</g>
<g id="cePDP-Recipe">
	<g id="cePDP-Recipe-320----With-Notes" transform="translate(-144 -742)">
		<g id="cerecipe-details" transform="translate(0 130)">
			<g id="cesocial-share" transform="translate(15 603)">
				<g id="cesocial-links" transform="translate(50)">
				</g>
			</g>
		</g>
	</g>
</g>
<g>
	<path style="fill:none;" d="M8.3729668,8.4601545c2.2435741,0,4.0686121-1.7892747,4.0686121-3.9881487
		s-1.825038-3.9876766-4.0686121-3.9876766s-4.069108,1.7888023-4.069108,3.9876766S6.1293917,8.4601545,8.3729668,8.4601545z"/>
	<path d="M8.3729668,8.9444838c2.5225992,0,4.5752106-2.0063715,4.5752106-4.4724779S10.895566,0,8.3729668,0
		C5.8498721,0,3.797261,2.0058992,3.797261,4.4720058S5.8498721,8.9444838,8.3729668,8.9444838z M8.3729668,0.4843293
		c2.2435741,0,4.0686121,1.7888023,4.0686121,3.9876766s-1.825038,3.9881487-4.0686121,3.9881487
		s-4.069108-1.7892747-4.069108-3.9881487S6.1293917,0.4843293,8.3729668,0.4843293z"/>
	<path d="M0.5256491,17.3284893c0.2617092-1.2269039,1.6311061-3.9105806,3.5194688-5.7570858
		C5.4981232,10.1505775,6.9991169,9.42976,8.5070362,9.42976c1.5232563,0,3.0440388,0.7316961,4.5198021,2.1742783
		c1.9457502,1.901844,3.258255,4.5353851,3.4581223,5.7055321c0.0178719,0.1048241,0.0061226,0.2125454-0.0191078,0.3213882
		c0.1650524,0.0562248,0.3236103,0.1139889,0.4752445,0.1737614c0.0545425-0.19067,0.0761871-0.3818111,0.0435352-0.5727177
		c-0.2102585-1.2335262-1.5771809-3.9928789-3.5956564-5.9666157c-3.1355629-3.0658426-6.5882435-3.0819235-9.7059965-0.0326357
		c-2.0456853,2.0006962-3.3898511,4.761941-3.6540339,5.9992514C-0.0253501,17.4892426-0.0016033,17.7457161,0.0862721,18
		c0.1452634-0.0672817,0.3027713-0.1317234,0.4641133-0.1953392C0.5024589,17.6438484,0.4925644,17.4846897,0.5256491,17.3284893z"
		/>
</g>
<g id="cvHeader-_x26_-Footer">
	<g id="cvHeader-Language3---_x2265_1440" transform="translate(-1084 -55)">
		<g id="cvheader-1440" transform="translate(-180)">
			<g id="cvicons-_x2F_-32px-_x2F_-heart" transform="translate(1265 56)">
			</g>
		</g>
	</g>
</g>
<g id="cwSymbols">
	<g id="cwproduct-card-1440-slash-price" transform="translate(0 -8)">
		<g id="cwicons-_x2F_-32px-_x2F_-heart-selected" transform="translate(0 8)">
			<g id="cwicons-_x2F_-32px-_x2F_-heart">
			</g>
		</g>
	</g>
</g>
<g id="cxMy-Account">
	<g id="cxMy-Account-1440----Dashboard" transform="translate(-481 -845)">
		<g id="cxwish-list" transform="translate(450 812)">
			<g id="cxtitle" transform="translate(32 26)">
				<g id="cxicons-_x2F_-32px-_x2F_-heart" transform="translate(0 8)">
				</g>
			</g>
		</g>
	</g>
</g>
</svg>
