<?xml version="1.0" encoding="UTF-8"?>
<svg width="202px" height="44px" viewBox="0 0 202 44" version="1.1" xmlns="http://www.w3.org/2000/svg" xmlns:xlink="http://www.w3.org/1999/xlink">
    <!-- Generator: Sketch 59.1 (86144) - https://sketch.com -->
    <title>LOGO 1925</title>
    <desc>Created with Sketch.</desc>
    <g id="Symbols" stroke="none" stroke-width="1" fill="none" fill-rule="evenodd">
        <g id="1440-/-footer-option" transform="translate(-173.000000, -367.000000)">
            <g id="1280-/-footer-copy" transform="translate(-171.000000, 0.000000)">
                <g id="footer">
                    <g id="bottom">
                        <g id="footer-item" transform="translate(345.000000, 368.000000)">
                            <g id="LOGO-1925">
                                <g>
                                    <g id="france-1925" transform="translate(68.330134, 35.199644)" fill="#1A1919">
                                        <polygon id="Fill-24" points="3.84492322 3.74370746 0.552802303 3.74370746 0.552802303 6.96328457 1.13686838e-13 6.96328457 1.13686838e-13 0.0984612267 4.31886756 0.0984612267 4.31886756 0.579863122 0.552802303 0.579863122 0.552802303 3.26230556 3.84492322 3.26230556"></polygon>
                                        <path d="M6.03000576,3.86131168 L6.03000576,6.9637692 L5.47720345,6.9637692 L5.47720345,0.103792187 L7.76886372,0.103792187 C8.49451631,0.103792187 9.0505048,0.265336448 9.43762572,0.586809526 C9.82554319,0.909898046 10.0191036,1.37999184 10.0191036,1.99870636 C10.0191036,2.36379639 9.91555278,2.69011579 9.70765451,2.97685686 C9.49975624,3.26521336 9.20662764,3.47441318 8.82906526,3.60687947 C9.24725144,3.71349868 9.54914203,3.90492863 9.73314395,4.1803616 C9.91794242,4.45417912 10.0095451,4.79988383 10.0095451,5.21505258 L10.0095451,5.8604219 C10.0095451,6.07366033 10.034238,6.265898 10.0844203,6.43632719 C10.1338061,6.60514094 10.2158503,6.74326129 10.3305528,6.85068822 L10.3305528,6.9637692 L9.76341267,6.9637692 C9.64871017,6.85068822 9.56825912,6.69156712 9.5220595,6.48721363 C9.47506334,6.28286014 9.45196353,6.07042944 9.45196353,5.85072925 L9.45196353,5.22393752 C9.45196353,4.80311472 9.31814395,4.47033354 9.04970825,4.22640171 C8.78127255,3.9832776 8.40689635,3.86131168 7.9273762,3.86131168 L6.03000576,3.86131168 Z M6.03000576,3.37990979 L7.6995643,3.37990979 C8.30971785,3.37990979 8.75578311,3.25552071 9.03776008,3.0051271 C9.32053359,2.75554122 9.46152207,2.41872144 9.46152207,1.99386003 C9.46152207,1.5415361 9.32133013,1.19340822 9.04014971,0.950284111 C8.75976583,0.70716 8.33680038,0.584386362 7.76886372,0.584386362 L6.03000576,0.584386362 L6.03000576,3.37990979 Z" id="Fill-25"></path>
                                        <path d="M15.3940307,5.0492274 L12.2922841,5.0492274 L11.5945106,6.96352688 L11.0186084,6.96352688 L13.589856,0.098703543 L14.1155758,0.098703543 L16.6677063,6.96352688 L16.0910077,6.96352688 L15.3940307,5.0492274 Z M12.4786756,4.54520931 L15.2124184,4.54520931 L13.8638676,0.829691321 L13.8359885,0.829691321 L12.4786756,4.54520931 Z" id="Fill-26"></path>
                                        <polygon id="Fill-27" points="22.6889501 6.96360766 22.1361478 6.96360766 18.2912246 1.06078039 18.2625489 1.06562671 18.2625489 6.96360766 17.7049674 6.96360766 17.7049674 0.0987843152 18.2625489 0.0987843152 22.1082687 5.99272665 22.1361478 5.98788032 22.1361478 0.0987843152 22.6889501 0.0987843152"></polygon>
                                        <path d="M29.1290173,4.81805756 L29.1385758,4.84632781 C29.0796315,5.53531408 28.8374818,6.07648735 28.4129232,6.47065535 C27.9875681,6.86563106 27.4196315,7.06271506 26.7067236,7.06271506 C25.9531919,7.06271506 25.345428,6.7872821 24.8842284,6.23560845 C24.4222322,5.68312708 24.1912342,4.96910145 24.1912342,4.09272383 L24.1912342,2.97483755 C24.1912342,2.10169083 24.4222322,1.38685747 24.8842284,0.831952941 C25.345428,0.277856128 25.9531919,-6.11066753e-13 26.7067236,-6.11066753e-13 C27.4252073,-6.11066753e-13 27.9955336,0.193045391 28.416906,0.579943895 C28.8390749,0.966034677 29.0796315,1.51043883 29.1385758,2.2107332 L29.1290173,2.23981117 L28.6080768,2.23981117 C28.5339981,1.67117537 28.3412342,1.23500587 28.0289885,0.932918103 C27.7183359,0.631638058 27.2770499,0.481401896 26.7067236,0.481401896 C26.114094,0.481401896 25.6393532,0.713217909 25.2817044,1.17765766 C24.9232591,1.64290513 24.7440365,2.23819573 24.7440365,2.96352946 L24.7440365,4.08949295 C24.7440365,4.82451933 24.9232591,5.42384854 25.2817044,5.88667285 C25.6393532,6.34949715 26.114094,6.58212089 26.7067236,6.58212089 C27.2770499,6.58212089 27.7183359,6.43430789 28.0313781,6.14029733 C28.3444203,5.84467134 28.5363877,5.40527095 28.6080768,4.81805756 L29.1290173,4.81805756 Z" id="Fill-28"></path>
                                        <polygon id="Fill-29" points="34.3827898 3.63959218 31.1233273 3.63959218 31.1233273 6.48277117 34.8567342 6.48277117 34.8567342 6.96336534 30.570525 6.96336534 30.570525 0.0985419988 34.8336344 0.0985419988 34.8336344 0.579943895 31.1233273 0.579943895 31.1233273 3.15899801 34.3827898 3.15899801"></polygon>
                                        <path d="M38.1632726,3.27676378 C38.1632726,3.0312165 38.241334,2.82928618 38.3974568,2.6709728 C38.5543762,2.51265942 38.763071,2.43269502 39.0227447,2.43269502 C39.2864012,2.43269502 39.4966891,2.51265942 39.6528119,2.6709728 C39.8089347,2.82928618 39.8877927,3.0312165 39.8877927,3.27676378 L39.8877927,3.58289015 C39.8877927,3.83166831 39.8089347,4.03279091 39.6528119,4.18706568 C39.4966891,4.34053273 39.2879942,4.41726625 39.027524,4.41726625 C38.7646641,4.41726625 38.5543762,4.34053273 38.3974568,4.18706568 C38.241334,4.03279091 38.1632726,3.83166831 38.1632726,3.58289015 L38.1632726,3.27676378 Z" id="Fill-30"></path>
                                        <polygon id="Fill-31" points="46.029952 6.99672423 45.4723704 6.99672423 45.4723704 0.688420865 43.7526296 0.891158912 43.7526296 0.494567753 46.029952 0.0802067252"></polygon>
                                        <path d="M50.5307505,6.5817978 C51.0453186,6.5817978 51.4547428,6.40733 51.7582265,6.06000984 C52.0625067,5.71188196 52.2138503,5.21351791 52.2138503,4.56410999 L52.2138503,3.87512372 C52.049762,4.16509566 51.829119,4.38802674 51.5511248,4.5455324 C51.2747236,4.70223033 50.9648676,4.78138702 50.6239463,4.78138702 C50.0074203,4.78138702 49.5103762,4.56410999 49.1336104,4.13036365 C48.7568445,3.69661731 48.5688599,3.135251 48.5688599,2.44707246 C48.5688599,1.75243214 48.7664031,1.1708728 49.1614894,0.702394444 C49.5565758,0.23472381 50.0464511,0.000484632781 50.6287255,0.000484632781 C51.2826891,0.000484632781 51.8068157,0.21614622 52.200309,0.648277117 C52.5938023,1.08040801 52.7905489,1.70881519 52.7905489,2.53188319 L52.7905489,4.55441733 C52.7905489,5.35002281 52.5826507,5.96631417 52.1676507,6.40490683 C51.7518541,6.8434995 51.2070173,7.06319969 50.5307505,7.06319969 C50.2886008,7.06319969 50.0472476,7.03816033 49.8035048,6.9913125 C49.559762,6.94365694 49.3279674,6.8701543 49.1081209,6.7716123 L49.2108752,6.29828762 C49.4211631,6.39925278 49.629858,6.47113998 49.8361631,6.51556465 C50.0424683,6.55998932 50.2734664,6.5817978 50.5307505,6.5817978 M50.6239463,4.29998512 C51.0269981,4.29998512 51.3639367,4.19578907 51.6355585,3.98658926 C51.9063839,3.77738944 52.0999443,3.51972634 52.2138503,3.21198453 L52.2138503,2.48745852 C52.2138503,1.83724287 52.0736583,1.34049427 51.7932745,0.996404998 C51.512094,0.653123444 51.132142,0.481078807 50.6518253,0.481078807 C50.2153186,0.481078807 49.8544837,0.672508756 49.5709136,1.05536865 C49.286547,1.43822855 49.1455585,1.90105286 49.1455585,2.44464929 C49.1455585,2.9720913 49.2785816,3.41310713 49.5454242,3.76769678 C49.8122668,4.12228643 50.1715086,4.29998512 50.6239463,4.29998512" id="Fill-32"></path>
                                        <path d="M58.2721334,6.96360766 L54.0695614,6.96360766 L54.0695614,6.52501499 L56.287143,3.97988517 C56.6957706,3.51140681 56.9849165,3.11885426 57.1545806,2.80303523 C57.3234482,2.4872162 57.4070854,2.18432072 57.4070854,1.89596421 C57.4070854,1.46787192 57.2891967,1.12459037 57.0518263,0.867734994 C56.8144559,0.610071899 56.4791104,0.481644212 56.0449933,0.481644212 C55.5312217,0.481644212 55.140118,0.625418604 54.8732754,0.91458283 C54.6064328,1.20374706 54.4734098,1.59064556 54.4734098,2.07447062 L53.9572486,2.07447062 L53.94769,2.04620037 C53.9325557,1.47433369 54.115761,0.989700911 54.4973061,0.593917473 C54.8780547,0.198134035 55.3942159,0.000242316391 56.0449933,0.000242316391 C56.6280643,0.000242316391 57.0940432,0.16986379 57.444523,0.509106736 C57.7942063,0.849157404 57.9702428,1.30471222 57.9702428,1.8765789 C57.9702428,2.25378475 57.8531507,2.63664464 57.6189664,3.02435087 C57.3847821,3.41286482 57.0589952,3.84580343 56.6400125,4.32316672 L54.7753004,6.45958956 L54.7848589,6.48220576 L58.2721334,6.48220576 L58.2721334,6.96360766 Z" id="Fill-33"></path>
                                        <path d="M59.5883445,3.85654613 L59.9651104,0.0990266316 L63.252452,0.0990266316 L63.252452,0.622430035 L60.4382582,0.622430035 L60.188143,3.06901786 C60.3586036,2.91231992 60.5457917,2.79116173 60.7505038,2.70635099 C60.9552159,2.62154026 61.2316171,2.5738847 61.5828935,2.56419204 C62.1595921,2.55530711 62.6247745,2.75239111 62.977644,3.15463632 C63.3305134,3.55688152 63.5073464,4.09724707 63.5073464,4.77654069 C63.5073464,5.47037329 63.3360893,6.02608554 62.9935749,6.44044657 C62.651857,6.85561532 62.1356958,7.06319969 61.4474808,7.06319969 C60.8898992,7.06319969 60.4255134,6.9040786 60.0527303,6.58906729 C59.6807438,6.27244054 59.5031142,5.80557763 59.5182486,5.18605539 L59.5278071,5.15778514 L60.0256478,5.15778514 C60.0256478,5.61899401 60.1546881,5.97035277 60.4135653,6.21509233 C60.6716459,6.45983188 61.0173464,6.5817978 61.4474808,6.5817978 C61.9501008,6.5817978 62.3260701,6.42833075 62.5753887,6.12058893 C62.8247073,5.81284712 62.9497649,5.36698496 62.9497649,4.78300246 C62.9497649,4.27171488 62.8247073,3.86139245 62.5753887,3.5520352 C62.3260701,3.24267794 61.9763868,3.08840317 61.5271353,3.08840317 C61.0930182,3.08840317 60.762452,3.15867492 60.5338436,3.29841071 C60.3060317,3.43733877 60.1411468,3.64896175 60.0383925,3.93247193 L59.5883445,3.85654613 Z" id="Fill-34"></path>
                                    </g>
                                    <g id="logo">
                                        <path d="M12.1446681,0.23872947 L187.449176,0.23872947 C194.276076,0.23872947 199.813123,6.44728988 199.813123,14.1161254 C199.813123,21.7833667 194.276076,27.9959126 187.449176,27.9959126 L12.4768909,27.9959126 C5.65397404,27.9959126 0.11692685,21.7833667 0.11692685,14.1161254 C0.11692685,6.44728988 5.65397404,0.23872947 12.4768909,0.23872947 L12.1446681,0.23872947 Z" id="Stroke-95" stroke="#1B1A19" stroke-width="0.5" fill="#FFFFFF"></path>
                                        <path d="M25.855353,15.8972306 C25.0267876,21.193119 20.3916019,25.2845994 14.793209,25.2845994 C8.61083691,25.2845994 3.59961003,20.3354466 3.59961003,14.2360879 C3.59961003,8.13513514 8.61083691,3.18837356 14.793209,3.18837356 C20.3916019,3.18837356 25.0291777,7.24876729 25.8585397,12.5422645 L22.7482329,12.5422645 C21.9642827,8.91947503 18.6978232,6.20776332 14.793209,6.20776332 C10.2982421,6.20776332 6.6557414,9.80265451 6.6557414,14.2360879 C6.6557414,18.6687243 10.2982421,22.2691951 14.793209,22.2691951 C18.7280977,22.2691951 22.0057109,19.5582805 22.7657603,15.8972306 L25.855353,15.8972306 Z" id="Fill-97" fill="#1B1A19"></path>
                                        <path d="M14.7931294,18.0108034 C16.905971,18.0108034 18.6172771,16.3169799 18.6172771,14.2357691 C18.6172771,12.1513699 16.905971,10.4663145 14.7931294,10.4663145 C12.6850679,10.4663145 10.9713718,12.1513699 10.9713718,14.2357691 C10.9713718,16.3169799 12.6850679,18.0108034 14.7931294,18.0108034" id="Fill-99" fill="#E26030"></path>
                                        <path d="M14.7931294,18.9215623 C12.1719948,18.9215623 10.0487961,16.8220183 10.0487961,14.2362474 C10.0487961,11.6512735 12.1719948,9.55412079 14.7931294,9.55412079 C17.416654,9.55412079 19.5422428,11.6512735 19.5422428,14.2362474 C19.5422428,16.8220183 17.416654,18.9215623 14.7931294,18.9215623 M14.7931294,7.08711675 C10.7897247,7.08711675 7.54796286,10.2874467 7.54796286,14.2362474 C7.54796286,18.1882364 10.7897247,21.3869722 14.7931294,21.3869722 C18.7941439,21.3869722 22.0398893,18.1882364 22.0398893,14.2362474 C22.0398893,10.2874467 18.7941439,7.08711675 14.7931294,7.08711675" id="Fill-100" fill="#1B1A19"></path>
                                        <path d="M187.610825,6.56087569 L187.610825,7.22007192 L188.021921,7.22007192 C188.388402,7.22007192 188.886338,7.27746265 188.886338,6.91637934 C188.886338,6.5839914 188.60112,6.56087569 188.279255,6.56087569 L187.610825,6.56087569 Z M189.236885,8.82541801 L188.796311,8.82541801 L188.107965,7.60427094 L187.610825,7.60427094 L187.610825,8.82541801 L187.220444,8.82541801 L187.220444,6.17508249 L188.352551,6.17508249 C188.838536,6.17508249 189.27672,6.31935639 189.27672,6.87652467 C189.27672,7.39941794 188.917409,7.58912616 188.560489,7.60427094 L189.236885,8.82541801 Z M186.138529,7.48311274 C186.138529,8.59585511 187.04995,9.45512179 188.144613,9.45512179 C189.236885,9.45512179 190.150697,8.59585511 190.150697,7.48311274 C190.150697,6.36797909 189.236885,5.50711823 188.144613,5.50711823 C187.04995,5.50711823 186.138529,6.36797909 186.138529,7.48311274 L186.138529,7.48311274 Z M185.74974,7.48311274 C185.74974,6.17029993 186.804568,5.12610759 188.144613,5.12610759 C189.483064,5.12610759 190.537892,6.17029993 190.537892,7.48311274 C190.537892,8.79433137 189.483064,9.8401179 188.144613,9.8401179 C186.804568,9.8401179 185.74974,8.79433137 185.74974,7.48311274 L185.74974,7.48311274 Z" id="Fill-101" fill="#1B1A19"></path>
                                        <polygon id="Fill-102" fill="#1B1A19" points="43.6566808 8.06865755 38.300484 8.06865755 38.300484 19.8688281 51.5431888 19.8688281 51.5431888 16.8446558 43.6566808 16.8446558"></polygon>
                                        <polygon id="Fill-103" fill="#1B1A19" points="57.529892 15.3716272 65.3391203 15.3716272 65.3391203 12.5642643 57.529892 12.5642643 57.529892 11.0920328 66.4098816 11.0920328 66.4098816 8.06865755 52.1728984 8.06865755 52.1728984 19.8688281 66.9237515 19.8688281 66.9237515 16.8446558 57.529892 16.8446558"></polygon>
                                        <polygon id="Fill-104" fill="#1B1A19" points="112.025829 15.3716272 119.838244 15.3716272 119.838244 12.5642643 112.025829 12.5642643 112.025829 11.0920328 120.910599 11.0920328 120.910599 8.06865755 106.669632 8.06865755 106.669632 19.8688281 121.420485 19.8688281 121.420485 16.8446558 112.025829 16.8446558"></polygon>
                                        <polygon id="Fill-105" fill="#1B1A19" points="159.02564 15.3716272 166.838852 15.3716272 166.838852 12.5642643 159.02564 12.5642643 159.02564 11.0920328 167.915987 11.0920328 167.915987 8.06865755 153.67741 8.06865755 153.67741 19.8688281 168.423483 19.8688281 168.423483 16.8446558 159.02564 16.8446558"></polygon>
                                        <path d="M81.2098113,17.2070144 C78.7041978,17.2070144 77.9003301,15.5546398 77.9003301,13.9700182 C77.9003301,12.3790198 78.7041978,10.7282394 81.2098113,10.7282394 C83.4262235,10.7282394 83.912209,12.0338783 84.0094061,12.4643088 L89.2174172,12.4643088 C88.7561294,9.504701 86.1246378,7.80529789 81.357997,7.78696474 C76.0010034,7.78696474 72.5465233,10.2531717 72.5465233,13.9700182 C72.5465233,17.4541134 75.7333131,20.1466948 81.357997,20.1466948 C86.4441134,20.1466948 89.2923068,17.6183146 89.2923068,15.2350054 L84.0317136,15.2350054 C83.7170181,16.3509361 83.0119409,17.2070144 81.2098113,17.2070144" id="Fill-106" fill="#1B1A19"></path>
                                        <path d="M132.063327,14.499049 C132.063327,15.7034572 132.063327,17.2067753 129.611093,17.2067753 C127.082375,17.2067753 127.082375,15.7034572 127.082375,14.499049 L127.082375,8.06889667 L121.887908,8.06889667 L121.887908,15.3073017 C121.887908,18.578573 124.438933,20.1480499 129.586395,20.1480499 C134.73067,20.1480499 137.257795,18.578573 137.257795,15.3073017 L137.257795,8.06889667 L132.063327,8.06889667 L132.063327,14.499049 Z" id="Fill-107" fill="#1B1A19"></path>
                                        <path d="M148.513456,12.6810384 C146.058035,12.2179272 143.571542,12.0353928 143.470362,11.1928651 C143.470362,10.5296834 144.666204,10.3989601 145.396776,10.3989601 C145.930563,10.3989601 146.54402,10.4778723 146.97822,10.6954788 C147.416404,10.8971434 147.708792,11.1928651 147.613188,11.636049 L152.676997,11.636049 C152.530405,8.76093316 149.194633,7.78688503 145.41988,7.78688503 C141.844302,7.78688503 138.40974,8.95940941 138.40974,11.6862659 C138.40974,14.0679809 141.553508,14.5789178 144.299724,15.1073907 C147.296899,15.6860805 148.051372,15.852673 148.051372,16.4624495 C148.051372,17.3392522 146.711327,17.5361343 145.83496,17.5361343 C144.837494,17.5361343 143.670333,17.388672 143.279951,16.6784618 C143.160446,16.4624495 143.083963,16.1978145 143.083963,15.8997016 L137.730953,15.8997016 C137.776365,19.6723446 143.401846,20.1466151 145.372078,20.1466151 C149.242435,20.1466151 153.405975,19.1574222 153.405975,16.0822359 C153.405975,13.9141419 150.971268,13.1425555 148.513456,12.6810384" id="Fill-108" fill="#1B1A19"></path>
                                        <polygon id="Fill-109" fill="#1B1A19" points="168.557966 8.06730249 168.557966 11.0906777 172.986807 11.0906777 172.986807 19.8690672 178.339817 19.8690672 178.339817 11.0906777 182.587807 11.0906777 182.587807 8.06730249"></polygon>
                                        <path d="M98.2270295,13.221946 L95.4242479,13.221946 L95.4242479,10.8776944 L97.9338449,10.8776944 C99.9749837,10.8776944 100.587644,11.3041393 100.587644,12.0494216 C100.587644,13.1095559 99.2221046,13.221946 98.2270295,13.221946 L98.2270295,13.221946 Z M102.4559,14.5339617 L102.533179,14.5315705 C102.866995,14.4972954 103.337844,14.399253 103.337844,14.399253 C105.112089,13.947301 105.940654,12.6655748 105.940654,11.4364568 C105.940654,9.20698662 103.313943,8.06714307 100.270558,8.06714307 L90.0712379,8.06714307 L90.0712379,19.8689078 L95.4258413,19.8689078 L95.4258413,15.7551088 L97.6462371,15.7551088 L100.257015,19.9725299 L105.782111,19.9725299 L105.585327,19.6297798 L102.4559,14.5339617 Z" id="Fill-110" fill="#1B1A19"></path>
                                    </g>
                                </g>
                            </g>
                        </g>
                    </g>
                </g>
            </g>
        </g>
    </g>
</svg>